<svg width="454" height="489" viewBox="0 0 454 489" fill="none" xmlns="http://www.w3.org/2000/svg">
<path opacity="0.21" d="M222.5 489C295.125 489 354 475.569 354 459C354 442.431 295.125 429 222.5 429C149.875 429 91 442.431 91 459C91 475.569 149.875 489 222.5 489Z" fill="black"/>
<path d="M307.715 79.5695C236.048 60.8618 8.81702 80.2926 5.20132 189.433C6.40655 219.027 22.0746 234.276 5.20132 275.463C-11.672 316.651 15.5422 379.323 112.817 376.913C210.091 374.502 223.349 346.782 310.126 356.424C396.903 366.066 455.959 320.022 453.549 268.921C451.138 217.822 381.234 223.852 402.929 144.908C410.16 123.814 379.382 98.2783 307.715 79.5695Z" fill="#4608AD" fill-opacity="0.1"/>
<path d="M212.131 112.625L217.551 112.939L219.671 113.062L225.088 113.375C225.088 113.375 224.018 123.693 227.459 125.487C222.839 131.824 217.477 134.666 217.477 134.666L217.241 134.652C217.241 134.652 212.242 131.213 208.383 124.385C212.007 122.999 212.131 112.625 212.131 112.625Z" fill="#EA968B"/>
<path d="M177.967 449.893C177.967 449.893 177.958 455.397 177.967 457.062C179.157 459.874 184.647 468.109 197.67 468.913C210.694 469.717 216.491 464.68 216.405 464.286C216.318 463.892 216.405 459.17 216.405 459.17C216.405 459.17 204.265 462.835 195.829 459.446C187.392 456.057 177.967 449.893 177.967 449.893Z" fill="black"/>
<path d="M229.792 445.073C229.792 445.073 229.783 450.576 229.792 452.241C230.983 455.053 236.473 463.288 249.497 464.092C262.521 464.896 268.318 459.86 268.231 459.465C268.144 459.071 268.231 454.349 268.231 454.349C268.231 454.349 256.092 458.014 247.655 454.625C239.218 451.236 229.792 445.073 229.792 445.073Z" fill="black"/>
<path d="M256.617 442.598C256.617 442.598 266.975 447.419 268.23 454.349C268.244 456.458 258.236 463.388 240.594 456.458C236.292 454.349 229.497 448.148 229.791 445.072C238.775 441.694 250.267 440.79 256.617 442.598Z" fill="black"/>
<path d="M204.793 447.419C204.793 447.419 215.15 452.24 216.405 459.17C216.419 461.279 206.411 468.209 188.769 461.279C184.467 459.17 177.672 452.969 177.967 449.893C186.949 446.515 198.441 445.611 204.793 447.419Z" fill="black"/>
<path d="M179.582 273.451C179.582 273.451 178.55 348.59 177.749 370.887C176.947 393.184 177.024 436.978 177.957 451.035C197.017 445.761 205.126 447.419 205.126 447.419C205.126 447.419 206.818 414.417 208.741 391.074C211.324 359.738 219.462 300.583 219.045 291.342C221.44 332.32 223.301 354.897 225.413 373.7C227.715 394.189 228.126 442.399 229.346 446.416C233.379 444.81 243.034 441.685 256.617 442.598C256.617 442.598 256.041 388.564 256.293 366.468C256.545 344.373 254.433 274.065 254.433 274.065L243.838 252.775L188.397 255.185L179.582 273.451Z" fill="black"/>
<path d="M167.528 56.4012C177.873 48.7998 183.717 59.5577 183.717 59.5577C188.279 34.4647 204.147 20.4249 204.147 20.4249C204.147 20.4249 256.763 38.4203 258.406 63.8712C258.406 63.8712 265.389 53.8545 274.791 62.5973C284.194 71.3401 281.421 92.1255 265.058 91.5229C259.95 91.2421 257.166 85.7065 257.166 85.7065C257.166 85.7065 258.931 116.853 218.073 114.493C177.214 112.134 182.45 81.3905 182.45 81.3905C182.45 81.3905 178.942 86.5622 173.835 86.2536C157.511 84.9701 157.181 64.0038 167.528 56.4012Z" fill="#FEC2AA"/>
<path d="M167.981 64.9692C169.275 62.9336 171.957 61.1751 175.016 61.4463C182.031 62.0718 180.185 72.5067 180.185 72.5067C180.185 72.5067 174.743 69.1176 172.902 74.4773C171.662 78.0846 176.838 80.1708 176.838 80.1708C176.838 80.1708 172.631 82.1486 168.395 78.4871C164.525 75.1426 165.85 68.3198 167.981 64.9692Z" fill="#EA968B"/>
<path d="M272.99 71.0352C271.939 68.8646 269.477 66.8084 266.407 66.7265C259.366 66.5385 260 77.118 260 77.118C260 77.118 265.795 74.3785 267.007 79.9141C267.822 83.6395 262.44 85.1159 262.44 85.1159C262.44 85.1159 266.392 87.565 271.022 84.4157C275.251 81.5376 274.722 74.6075 272.99 71.0352Z" fill="#EA968B"/>
<path d="M199.682 14.9291C199.682 14.9291 191.594 6.84921 195.998 3.7843C202.167 -0.51116 205.326 11.8389 205.326 11.8389C205.326 11.8389 203.829 -1.68506 212.378 0.175825C217.973 1.86556 211.697 11.9799 211.697 11.9799C211.697 11.9799 232.198 5.49693 250.673 15.3702C268.834 25.0736 275.562 53.6967 257.984 66.2359C257.984 66.2359 250.589 60.0784 245.009 50.3437C246.724 56.1373 245.834 59.7301 245.834 59.7301C245.834 59.7301 233.896 57.4462 225.326 48.0694C226.931 51.8057 226.561 54.2909 226.561 54.2909C226.561 54.2909 213.207 52.8349 204.108 32.951C204.108 32.951 197.602 54.8887 184.212 61.9754C175.817 53.7618 175.588 44.9177 179.602 31.9904C182.413 22.9295 195.234 13.0791 199.682 14.9291Z" fill="#1A1A1A"/>
<path d="M228.175 140.7C228.175 140.7 219.733 131.525 215.279 133.294C214.303 133.681 204.416 139.114 203.374 148.15C199.658 180.378 202.036 257.932 202.036 257.932C202.036 257.932 233.336 257.742 235.033 257.932C236.73 258.125 228.175 140.7 228.175 140.7Z" fill="#CCCCCC"/>
<path d="M225.902 123.493L218.005 133.394L226.113 148.78L235.244 129.865L225.902 123.493Z" fill="#E6E6E6"/>
<path d="M209.527 122.547L218.005 133.394L209.842 148.523L200.324 128.748L209.527 122.547Z" fill="#E6E6E6"/>
<path d="M253.065 131.662C253.065 131.662 288.432 185.281 299.881 187.691C297.471 200.949 287.226 216.617 287.226 216.617C287.226 216.617 261.941 192.369 254.534 173.379C253.875 150.98 253.065 131.662 253.065 131.662Z" fill="#DF6E0E"/>
<path d="M225.372 121.851C225.372 121.851 227.573 229.147 226.566 275.004C231.106 275.267 255.142 277.088 258.049 274.067C258.276 262.238 254.803 133.13 253.065 131.663C249.484 130.545 236.46 127.345 236.46 127.345L225.372 121.851Z" fill="#ED6D01"/>
<path d="M225.372 121.851L236.46 127.344L245.761 143.766L234.858 155.093L246.422 161.91C246.422 161.91 226.468 189.59 226.563 199.628C225.865 172.702 225.372 121.851 225.372 121.851Z" fill="#DF6E0E"/>
<path d="M211.117 120.379C211.117 120.379 209.776 222.651 208.765 273.974C202.212 274.544 181.043 274.251 176.854 272.131C176.785 260.302 181.537 131.26 183.296 129.817C186.89 128.745 199.957 125.721 199.957 125.721L211.117 120.379Z" fill="#ED6D01"/>
<path d="M222.424 141.781L213.433 141.867L212.274 238.512C212.274 238.512 217.746 245.662 218.198 246.028C218.651 246.397 225.096 239.252 225.096 239.252L222.424 141.781Z" fill="#4608AD"/>
<path d="M211.698 203.359C211.698 203.359 209.489 191.106 214.912 190.303C219.933 189.499 219.131 198.337 219.733 200.949C228.973 196.73 230.159 201.092 230.782 203.359C231.484 205.92 229.615 206.796 230.128 207.728C230.715 208.794 232.991 208.933 232.991 213.402C232.991 220.986 216.114 219.631 216.114 219.631C216.114 219.631 210.895 208.783 211.698 203.359Z" fill="#EA968B"/>
<path d="M183.296 129.817C183.296 129.817 149.026 156.355 146.214 189.298C143.402 222.24 177.121 241.829 216.908 222.192C215.315 217.421 211.699 203.359 211.699 203.359C211.699 203.359 174.021 217.999 168.268 197.578C164.294 183.473 180.739 166.593 180.739 166.593C180.739 166.593 183.505 138.598 183.296 129.817Z" fill="#DF6E0E"/>
<path d="M211.117 120.379L199.958 125.721L190.436 142.017L201.187 153.49L189.532 160.151C189.532 160.151 210.284 186.162 210.052 196.196C210.059 169.271 211.117 120.379 211.117 120.379Z" fill="#DF6E0E"/>
<path d="M218.005 133.394L213.434 141.867L218.371 146.284L222.423 141.781L218.005 133.394Z" fill="#4608AD"/>
<path d="M239.68 74.5508C239.762 73.1263 238.675 71.9053 237.25 71.8222L236.39 71.7728C234.965 71.6908 233.746 72.7791 233.662 74.2025L233.196 82.28C233.114 83.7046 234.201 84.9255 235.626 85.0087L236.486 85.0593C237.911 85.1412 239.131 84.0529 239.212 82.6283L239.68 74.5508Z" fill="#110306"/>
<path d="M207.193 72.6743C207.275 71.2497 206.187 70.0288 204.762 69.9456L203.905 69.8962C202.481 69.8142 201.26 70.9026 201.177 72.3271L200.71 80.4046C200.628 81.8292 201.717 83.0501 203.141 83.1333L203.998 83.1827C205.423 83.2647 206.644 82.1763 206.727 80.7517L207.193 72.6743Z" fill="#110306"/>
<path d="M231.081 63.7737C230.998 65.2152 233.661 66.5421 237.031 66.7374C240.399 66.9326 243.198 65.9202 243.28 64.4788C243.364 63.0373 240.699 61.7104 237.333 61.5163C233.963 61.3211 231.164 62.3323 231.081 63.7737Z" fill="#1A1A1A"/>
<path d="M198.393 61.885C198.309 63.3265 200.973 64.6535 204.34 64.8487C207.711 65.0428 210.51 64.0316 210.594 62.5901C210.677 61.1486 208.014 59.8217 204.643 59.6276C201.274 59.4324 198.476 60.4436 198.393 61.885Z" fill="#1A1A1A"/>
<path d="M221.641 73.3359L220.599 91.3843" stroke="#EA968B" stroke-width="2" stroke-miterlimit="10" stroke-linecap="round"/>
<path d="M232.904 94.2841C232.904 94.2841 231.312 102.163 218.827 101.442C206.342 100.721 206.33 92.7499 206.33 92.7499" stroke="#EA968B" stroke-width="2" stroke-miterlimit="10" stroke-linecap="round"/>
<path d="M309.764 134.103C309.764 134.103 308.768 129.381 305.191 129.906C301.611 130.43 300.312 136.105 303.624 144.143C305.509 146.605 311.171 145.774 309.764 134.103Z" fill="#EA968B"/>
<path d="M349.899 139.482H276.379V243.132H349.899V139.482Z" fill="white"/>
<path d="M286.021 155.15H299.279" stroke="#110306" stroke-width="2" stroke-miterlimit="10" stroke-linecap="round"/>
<path d="M286.021 164.792H340.257" stroke="#110306" stroke-width="2" stroke-miterlimit="10" stroke-linecap="round"/>
<path d="M286.021 170.818H340.257" stroke="#110306" stroke-width="2" stroke-miterlimit="10" stroke-linecap="round"/>
<path d="M286.021 176.844H340.257" stroke="#110306" stroke-width="2" stroke-miterlimit="10" stroke-linecap="round"/>
<path d="M286.021 182.87H340.257" stroke="#110306" stroke-width="2" stroke-miterlimit="10" stroke-linecap="round"/>
<path d="M286.021 188.896H340.257" stroke="#110306" stroke-width="2" stroke-miterlimit="10" stroke-linecap="round"/>
<path d="M286.021 194.922H311.331" stroke="#110306" stroke-width="2" stroke-miterlimit="10" stroke-linecap="round"/>
<circle cx="314.947" cy="194.922" r="1.20523" fill="#110306"/>
<path d="M311.331 226.259H341.462" stroke="#110306" stroke-width="2" stroke-miterlimit="10" stroke-linecap="round"/>
<path d="M311.131 235.198L322.178 215.21V222.643L327.402 219.027L329.411 222.04L333.629 219.027L334.834 222.643" stroke="#110306" stroke-width="2" stroke-miterlimit="10" stroke-linecap="round"/>
<path d="M324.589 231.079H341.462" stroke="#110306" stroke-width="2" stroke-miterlimit="10" stroke-linecap="round"/>
<circle cx="339.052" cy="222.643" r="1.20523" fill="#110306"/>
<path d="M309.222 139.482C309.222 139.482 309.523 134.664 313.139 134.664C316.755 134.664 318.864 140.089 316.755 148.523C315.248 151.233 309.523 151.233 309.222 139.482Z" fill="#FEC2AA"/>
<path d="M324.532 139.289C324.532 139.289 323.992 134.493 320.382 134.672C316.769 134.851 314.931 140.374 317.458 148.693C319.097 151.324 324.813 151.041 324.532 139.289Z" fill="#FEC2AA"/>
<path d="M155.354 121.919C155.354 121.919 148.022 38.483 64.3575 44.0536C-19.3075 49.6242 -17.3767 143.539 71.5805 140.753C113.38 137.757 142.772 114.686 142.772 114.686L155.354 121.919Z" fill="#4608AD"/>
<path d="M38.212 93.0863L42.6941 80.1833H44.8777L39.2464 95.3953H37.6896L38.212 93.0863ZM34.0225 80.1833L38.4628 93.0863L39.0165 95.3953H37.4598L31.8389 80.1833H34.0225ZM50.8643 95.6042C50.0773 95.6042 49.3633 95.4719 48.7225 95.2072C48.0887 94.9356 47.5419 94.556 47.0822 94.0684C46.6295 93.5808 46.2812 93.0027 46.0374 92.3341C45.7937 91.6654 45.6718 90.9341 45.6718 90.14V89.7012C45.6718 88.7818 45.8076 87.9634 46.0792 87.246C46.3509 86.5216 46.72 85.9087 47.1867 85.4072C47.6534 84.9057 48.1827 84.5261 48.7748 84.2684C49.3668 84.0106 49.9797 83.8818 50.6136 83.8818C51.4215 83.8818 52.1181 84.0211 52.7031 84.2997C53.2952 84.5783 53.7793 84.9684 54.1554 85.4699C54.5315 85.9644 54.8101 86.5495 54.9912 87.2251C55.1723 87.8937 55.2628 88.6251 55.2628 89.4191V90.2863H46.821V88.7087H53.33V88.5624C53.3021 88.0609 53.1977 87.5733 53.0166 87.0997C52.8424 86.6261 52.5638 86.236 52.1807 85.9296C51.7977 85.6231 51.2753 85.4699 50.6136 85.4699C50.1748 85.4699 49.7708 85.5639 49.4016 85.7519C49.0325 85.933 48.7156 86.2047 48.4509 86.5669C48.1862 86.9291 47.9807 87.3714 47.8345 87.8937C47.6882 88.4161 47.6151 89.0186 47.6151 89.7012V90.14C47.6151 90.6763 47.6882 91.1813 47.8345 91.655C47.9877 92.1216 48.2071 92.5326 48.4927 92.8878C48.7852 93.243 49.137 93.5216 49.5479 93.7236C49.9658 93.9256 50.4394 94.0266 50.9688 94.0266C51.6514 94.0266 52.2295 93.8873 52.7031 93.6087C53.1768 93.3301 53.5912 92.9574 53.9464 92.4908L55.1166 93.4206C54.8728 93.7898 54.5628 94.1415 54.1867 94.4759C53.8106 94.8102 53.3474 95.0818 52.7972 95.2908C52.2539 95.4997 51.6096 95.6042 50.8643 95.6042ZM59.4524 85.8669V95.3953H57.5196V84.0907H59.4002L59.4524 85.8669ZM62.9838 84.0281L62.9733 85.8251C62.8131 85.7903 62.6599 85.7694 62.5136 85.7624C62.3743 85.7485 62.2141 85.7415 62.033 85.7415C61.5873 85.7415 61.1937 85.8111 60.8524 85.9504C60.5111 86.0898 60.2221 86.2848 59.9853 86.5355C59.7484 86.7863 59.5604 87.0858 59.4211 87.434C59.2887 87.7753 59.2017 88.1515 59.1599 88.5624L58.6166 88.8758C58.6166 88.1932 58.6828 87.5524 58.8151 86.9534C58.9544 86.3544 59.1668 85.8251 59.4524 85.3654C59.738 84.8987 60.1002 84.5365 60.539 84.2788C60.9848 84.0141 61.5141 83.8818 62.1271 83.8818C62.2664 83.8818 62.4266 83.8992 62.6077 83.934C62.7887 83.9619 62.9141 83.9932 62.9838 84.0281ZM66.8704 84.0907V95.3953H64.9271V84.0907H66.8704ZM64.7808 81.0922C64.7808 80.7788 64.8748 80.5141 65.0629 80.2982C65.2579 80.0823 65.5435 79.9743 65.9196 79.9743C66.2888 79.9743 66.5709 80.0823 66.7659 80.2982C66.9679 80.5141 67.0689 80.7788 67.0689 81.0922C67.0689 81.3917 66.9679 81.6494 66.7659 81.8654C66.5709 82.0743 66.2888 82.1788 65.9196 82.1788C65.5435 82.1788 65.2579 82.0743 65.0629 81.8654C64.8748 81.6494 64.7808 81.3917 64.7808 81.0922ZM72.554 95.3953H70.6211V83.1086C70.6211 82.2519 70.7883 81.5275 71.1226 80.9355C71.4569 80.3435 71.9341 79.8942 72.554 79.5877C73.1739 79.2813 73.9087 79.128 74.7584 79.128C75.2599 79.128 75.751 79.1907 76.2316 79.3161C76.7122 79.4345 77.2067 79.5843 77.7152 79.7654L77.3913 81.3952C77.0709 81.2698 76.6983 81.1514 76.2734 81.04C75.8555 80.9216 75.3958 80.8624 74.8943 80.8624C74.0654 80.8624 73.4664 81.0504 73.0972 81.4266C72.7351 81.7957 72.554 82.3564 72.554 83.1086V95.3953ZM74.8629 84.0907V85.5743H68.8345V84.0907H74.8629ZM78.6659 84.0907V95.3953H76.7331V84.0907H78.6659ZM86.5331 95.6042C85.7461 95.6042 85.0321 95.4719 84.3913 95.2072C83.7575 94.9356 83.2107 94.556 82.751 94.0684C82.2983 93.5808 81.95 93.0027 81.7062 92.3341C81.4625 91.6654 81.3406 90.9341 81.3406 90.14V89.7012C81.3406 88.7818 81.4764 87.9634 81.748 87.246C82.0197 86.5216 82.3888 85.9087 82.8555 85.4072C83.3222 84.9057 83.8515 84.5261 84.4436 84.2684C85.0356 84.0106 85.6485 83.8818 86.2824 83.8818C87.0903 83.8818 87.7869 84.0211 88.3719 84.2997C88.964 84.5783 89.4481 84.9684 89.8242 85.4699C90.2003 85.9644 90.4789 86.5495 90.66 87.2251C90.8411 87.8937 90.9316 88.6251 90.9316 89.4191V90.2863H82.4898V88.7087H88.9988V88.5624C88.9709 88.0609 88.8665 87.5733 88.6854 87.0997C88.5112 86.6261 88.2326 86.236 87.8495 85.9296C87.4665 85.6231 86.9441 85.4699 86.2824 85.4699C85.8436 85.4699 85.4396 85.5639 85.0704 85.7519C84.7013 85.933 84.3844 86.2047 84.1197 86.5669C83.855 86.9291 83.6495 87.3714 83.5033 87.8937C83.357 88.4161 83.2839 89.0186 83.2839 89.7012V90.14C83.2839 90.6763 83.357 91.1813 83.5033 91.655C83.6565 92.1216 83.8759 92.5326 84.1615 92.8878C84.454 93.243 84.8058 93.5216 85.2167 93.7236C85.6346 93.9256 86.1082 94.0266 86.6376 94.0266C87.3202 94.0266 87.8983 93.8873 88.3719 93.6087C88.8456 93.3301 89.26 92.9574 89.6152 92.4908L90.7854 93.4206C90.5416 93.7898 90.2316 94.1415 89.8555 94.4759C89.4794 94.8102 89.0162 95.0818 88.466 95.2908C87.9227 95.4997 87.2784 95.6042 86.5331 95.6042ZM100.314 93.2012V79.3474H102.257V95.3953H100.481L100.314 93.2012ZM92.7078 89.8684V89.649C92.7078 88.7853 92.8123 88.0017 93.0212 87.2982C93.2371 86.5878 93.5401 85.9783 93.9302 85.4699C94.3272 84.9614 94.7973 84.5713 95.3406 84.2997C95.8909 84.0211 96.5038 83.8818 97.1794 83.8818C97.8899 83.8818 98.5098 84.0072 99.0391 84.2579C99.5755 84.5017 100.028 84.8604 100.397 85.334C100.773 85.8007 101.069 86.3649 101.285 87.0266C101.501 87.6883 101.651 88.437 101.735 89.2729V90.234C101.658 91.0629 101.508 91.8082 101.285 92.4699C101.069 93.1316 100.773 93.6958 100.397 94.1624C100.028 94.6291 99.5755 94.9878 99.0391 95.2385C98.5028 95.4823 97.876 95.6042 97.1585 95.6042C96.4968 95.6042 95.8909 95.4614 95.3406 95.1759C94.7973 94.8903 94.3272 94.4898 93.9302 93.9744C93.5401 93.4589 93.2371 92.853 93.0212 92.1564C92.8123 91.453 92.7078 90.6903 92.7078 89.8684ZM94.6511 89.649V89.8684C94.6511 90.4326 94.7068 90.9619 94.8182 91.4564C94.9366 91.951 95.1177 92.3863 95.3615 92.7624C95.6053 93.1385 95.9152 93.4346 96.2914 93.6505C96.6675 93.8594 97.1167 93.9639 97.6391 93.9639C98.2799 93.9639 98.8058 93.8281 99.2168 93.5565C99.6347 93.2848 99.969 92.9261 100.22 92.4803C100.47 92.0346 100.666 91.5505 100.805 91.0281V88.5102C100.721 88.1271 100.599 87.7579 100.439 87.4027C100.286 87.0405 100.084 86.7201 99.8332 86.4415C99.5894 86.1559 99.2864 85.9296 98.9242 85.7624C98.569 85.5952 98.1476 85.5116 97.66 85.5116C97.1307 85.5116 96.6745 85.6231 96.2914 85.846C95.9152 86.0619 95.6053 86.3614 95.3615 86.7445C95.1177 87.1206 94.9366 87.5594 94.8182 88.0609C94.7068 88.5554 94.6511 89.0848 94.6511 89.649ZM107.565 80.1833L107.429 91.1012H105.684L105.538 80.1833H107.565ZM105.475 94.4236C105.475 94.1102 105.569 93.8455 105.757 93.6296C105.952 93.4137 106.238 93.3057 106.614 93.3057C106.983 93.3057 107.265 93.4137 107.46 93.6296C107.662 93.8455 107.763 94.1102 107.763 94.4236C107.763 94.7231 107.662 94.9808 107.46 95.1968C107.265 95.4127 106.983 95.5206 106.614 95.5206C106.238 95.5206 105.952 95.4127 105.757 95.1968C105.569 94.9808 105.475 94.7231 105.475 94.4236Z" fill="#E6E6E6"/>
</svg>
